<svg width="80" height="80" viewBox="0 0 80 80" fill="none" xmlns="http://www.w3.org/2000/svg">
<path d="M1.3335 35.9998H7.99976V43.9996H1.3335V35.9998Z" fill="#EEF1EB"/>
<path d="M17.3335 47.9999H24.0004V53.3441C24.0004 54.8108 22.8108 55.9998 21.3441 55.9998H17.3335V47.9999Z" fill="#345A84"/>
<path d="M44.0004 15.9998C44.0004 20.4181 40.4182 23.9996 36.0005 23.9996C31.5822 23.9996 28 20.4181 28 15.9998C28 11.5814 31.5822 7.99988 36.0005 7.99988C40.4182 7.99988 44.0004 11.5814 44.0004 15.9998Z" fill="#88D0EF"/>
<path d="M27.1948 35.025L52.0001 23.9996V55.9998L27.1948 44.9744V35.025Z" fill="#EEF1EB"/>
<path d="M10.6665 47.9999H18.667V62.6666H10.6665V47.9999Z" fill="#A9BFD1"/>
<path d="M69.3335 1.33301L58.667 11.9995V21.333H68.0005L78.667 10.6665L69.3335 1.33301ZM64.6667 17.3328C63.5626 17.3328 62.6666 16.4374 62.6666 15.3333C62.6666 14.2285 63.5626 13.3331 64.6667 13.3331C65.7715 13.3331 66.6669 14.2285 66.6669 15.3333C66.6669 16.438 65.7715 17.3328 64.6667 17.3328Z" fill="#D1E3EE"/>
<path d="M10.4963 30.6665H24.1707C26.2855 30.6665 28 32.381 28 34.4958V45.5042C28 47.619 26.2855 49.3335 24.1707 49.3335H10.4963C8.38147 49.3335 6.66699 47.619 6.66699 45.5042V34.4958C6.66699 32.381 8.38147 30.6665 10.4963 30.6665Z" fill="#DD1C4B"/>
<path d="M51.9999 23.9996L44 27.5555V52.4438L51.9999 55.9998V23.9996Z" fill="#D1E3EE"/>
<path d="M56.0396 62.8015L65.4677 53.3734L78.6665 66.5723L69.2384 76.0004L56.0396 62.8015Z" fill="#D1E3EE"/>
<path d="M65.4683 53.3716L66.4113 65.6293L78.6671 66.5717L65.4683 53.3716Z" fill="#A9BFD1"/>
<path d="M74.6669 31.9995C74.6669 34.209 72.8761 35.9998 70.6672 35.9998C68.4578 35.9998 66.667 34.209 66.667 31.9995C66.667 29.7906 68.4578 27.9999 70.6672 27.9999C72.8761 27.9999 74.6669 29.7906 74.6669 31.9995Z" fill="#88D0EF"/>
<path d="M69.3594 37.3334H71.9766C74.1989 37.334 76.0006 39.1357 76.0006 41.3586V47.9999H65.3335V41.3586C65.3335 39.1351 67.1359 37.3334 69.3594 37.3334Z" fill="#88D0EF"/>
<path d="M64.0002 33.3331C64.0002 34.8059 62.8064 35.9998 61.3336 35.9998C59.8608 35.9998 58.667 34.8059 58.667 33.3331C58.667 31.8604 59.8608 30.6665 61.3336 30.6665C62.8064 30.6665 64.0002 31.8604 64.0002 33.3331Z" fill="#88D0EF"/>
<path d="M61.3337 37.3334C63.5426 37.3334 65.334 39.1241 65.334 41.333V45.3333H57.3335V41.333C57.3335 39.1241 59.1243 37.3334 61.3337 37.3334Z" fill="#88D0EF"/>
<path d="M51.6094 2.27539L49.724 0.390625L41.5789 8.53333C37.4352 5.43213 31.5624 6.27747 28.4618 10.4211C25.3606 14.5642 26.206 20.437 30.3496 23.5382C34.4933 26.6388 40.3661 25.7935 43.4667 21.6504C45.9575 18.3215 45.9575 13.75 43.4667 10.4211L51.6094 2.27539ZM36.0003 22.6666C32.318 22.6666 29.3334 19.6814 29.3334 15.9998C29.3334 12.3181 32.318 9.33289 36.0003 9.33289C39.6819 9.33289 42.6665 12.3181 42.6665 15.9998C42.6623 19.6802 39.6801 22.6624 36.0003 22.6666Z" fill="#D1E3EE"/>
<path d="M37.3331 55.9998H31.9999L24 63.9996L38.6667 78.6664L49.3333 67.9999L37.3331 55.9998ZM31.0575 65.7239L36.3907 60.3906L38.2761 62.276L32.9423 67.6093L31.0575 65.7239ZM36.9425 71.6095L35.0571 69.7241L40.3904 64.3909L42.2758 66.2756L36.9425 71.6095Z" fill="#88D0EF"/>
<path d="M64.6666 13.3331C63.5625 13.3331 62.6665 14.2285 62.6665 15.3333C62.6665 16.438 63.5625 17.3334 64.6666 17.3334C65.7714 17.3334 66.6667 16.438 66.6667 15.3333C66.6667 14.2285 65.7714 13.3331 64.6666 13.3331Z" fill="black"/>
<path d="M70.2766 0.390594C69.756 -0.130035 68.9119 -0.130035 68.3912 0.390594L57.7241 11.0571C57.4745 11.3073 57.3335 11.6461 57.3335 11.9995V21.333C57.3335 22.0697 57.9304 22.6666 58.6671 22.6666H68.0006C68.354 22.6666 68.6934 22.5256 68.943 22.276L79.6095 11.6089C80.1301 11.0882 80.1301 10.2441 79.6095 9.72348L70.2766 0.390594ZM67.4482 20H60.0001V12.5518L69.3336 3.21835L76.7817 10.6665L67.4482 20Z" fill="black"/>
<path d="M1.33362 45.3333H5.33325V45.5035C5.33875 47.9028 6.99585 49.9823 9.3335 50.5225V62.6666C9.3335 63.4033 9.93042 64.0002 10.6665 64.0002H18.667C19.4031 64.0002 20 63.4027 20 62.6666V57.3334H21.344C23.5449 57.3273 25.3278 55.545 25.3333 53.3441V50.5225C27.0361 50.1233 28.4204 48.8879 29.0106 47.2412L51.4587 57.2186C52.132 57.5177 52.9193 57.2144 53.2184 56.5411C53.2941 56.3708 53.3337 56.1865 53.3337 55.9998V23.9996C53.3337 23.2635 52.7368 22.6666 52.0001 22.6666C51.814 22.6666 51.6296 22.7057 51.4587 22.7814L29.0106 32.7588C28.2819 30.7098 26.3452 29.3396 24.1705 29.3329H10.4962C7.64587 29.3359 5.3363 31.6461 5.33325 34.4958V34.6667H1.33362C0.596924 34.6667 0 35.2637 0 35.9998V43.9996C0 44.7363 0.596924 45.3333 1.33362 45.3333ZM45.3333 28.421L50.6671 26.0516V53.9478L45.3333 51.5784V28.421ZM29.3335 35.5334L42.6666 29.6063V50.3998L29.3335 44.4666V35.5334ZM17.3334 55.9998V61.333H12.0001V50.6665H17.3334V55.9998ZM22.6666 53.3441C22.666 54.0741 22.0746 54.6661 21.344 54.6667H20V50.6665H22.6666V53.3441ZM7.99988 43.9996V34.4958C8.00171 33.1177 9.11804 32.0013 10.4962 31.9995H24.1705C25.5487 32.0013 26.665 33.1177 26.6669 34.4958V45.5042C26.665 46.8817 25.5487 47.9987 24.1705 47.9999H10.4962C9.11804 47.9987 8.00171 46.8817 7.99988 45.5042V43.9996ZM2.66663 37.3334H5.33325V42.6666H2.66663V37.3334Z" fill="black"/>
<path d="M66.4112 52.4292C65.8906 51.9085 65.0465 51.9085 64.5258 52.4292L55.0965 61.8585C54.5759 62.3791 54.5759 63.2232 55.0965 63.7439L68.2966 76.9439C68.8172 77.4646 69.6607 77.4646 70.1814 76.9439L79.6095 67.5158C80.1301 66.9952 80.1301 66.1511 79.6095 65.6305L66.4112 52.4292ZM75.1765 64.9627L67.6521 64.3853L67.0735 56.8609L75.1765 64.9627ZM69.239 74.1119L57.9243 62.7997L64.3604 56.3641L65.0819 65.7293C65.1313 66.3849 65.6526 66.9067 66.3081 66.9574L75.6751 67.677L69.239 74.1119Z" fill="black"/>
<path d="M36.0006 25.3333C41.1446 25.3448 45.3243 21.1841 45.3365 16.04C45.3408 14.0137 44.6846 12.041 43.467 10.4211L51.6121 2.27539L49.7243 0.390625L41.5792 8.53333C37.455 5.44006 31.6048 6.27625 28.5122 10.3998C25.4195 14.5233 26.2551 20.3735 30.3792 23.4662C32.0003 24.6826 33.9736 25.3375 36.0006 25.3333ZM36.0006 9.33289C39.6822 9.33289 42.6668 12.3181 42.6668 15.9998C42.6668 19.6814 39.6822 22.6666 36.0006 22.6666C32.3183 22.6666 29.3337 19.6814 29.3337 15.9998C29.338 12.3199 32.3201 9.33777 36.0006 9.33289Z" fill="black"/>
<path d="M57.3335 46.6669H64.0004V47.9999C64.0004 48.7366 64.5973 49.3335 65.3334 49.3335H76.0005C76.7366 49.3335 77.3335 48.736 77.3335 47.9999V41.3587C77.3268 39.0943 75.8949 37.0795 73.7587 36.3281C76.1592 34.6204 76.7201 31.2903 75.0123 28.8904C73.3052 26.4905 69.9751 25.929 67.5752 27.6367C65.1747 29.3445 64.6138 32.674 66.3215 35.0745C66.6664 35.5591 67.09 35.9827 67.5752 36.3281C66.7122 36.6358 65.9425 37.16 65.3401 37.8504C64.8756 37.3151 64.3086 36.8775 63.672 36.5637C65.4646 35.2722 65.8705 32.7722 64.579 30.9802C63.2869 29.1876 60.7869 28.7824 58.9949 30.0739C57.2029 31.3654 56.797 33.8654 58.0885 35.6574C58.34 36.0065 58.6464 36.3123 58.9949 36.5637C57.1681 37.4518 56.0066 39.3024 56.0005 41.333V45.3333C56.0005 46.0693 56.5974 46.6669 57.3335 46.6669ZM70.6672 29.3329C72.14 29.3329 73.3339 30.5274 73.3339 31.9995C73.3339 33.4723 72.14 34.6668 70.6672 34.6668C69.1945 34.6668 68.0006 33.4723 68.0006 31.9995C68.0006 30.5274 69.1945 29.3329 70.6672 29.3329ZM66.667 45.3333V41.3587C66.6694 39.8724 67.873 38.6688 69.3593 38.6664H71.9752C73.4608 38.6688 74.665 39.8724 74.6669 41.3587V46.6663H66.667V45.3333ZM61.3337 31.9995C62.0698 31.9995 62.6667 32.5971 62.6667 33.3331C62.6667 34.0698 62.0698 34.6668 61.3337 34.6668C60.597 34.6668 60.0001 34.0692 60.0001 33.3331C60.0001 32.5971 60.597 31.9995 61.3337 31.9995ZM58.6671 41.333C58.6671 39.8602 59.861 38.6664 61.3337 38.6664C62.8065 38.6664 64.0004 39.8602 64.0004 41.333V43.9996H58.6671V41.333Z" fill="black"/>
<path d="M37.3331 54.6667H31.9999C31.6465 54.6667 31.3071 54.8071 31.0575 55.0574L23.057 63.0573C22.537 63.5779 22.537 64.422 23.057 64.9426L37.7238 79.6094C38.2444 80.13 39.0885 80.13 39.6091 79.6094L50.2762 68.9429C50.7963 68.4222 50.7963 67.5781 50.2762 67.0575L38.2761 55.0574C38.0259 54.8071 37.6865 54.6667 37.3331 54.6667ZM38.6667 76.781L25.8854 64.0002L32.5516 57.3334H36.7814L47.4479 67.9999L38.6667 76.781Z" fill="black"/>
<path d="M31.0576 65.7239L36.3909 60.39L38.2762 62.276L32.943 67.6093L31.0576 65.7239Z" fill="black"/>
<path d="M35.0566 69.7235L40.3905 64.3903L42.2759 66.2756L36.9426 71.6095L35.0566 69.7235Z" fill="black"/>
</svg>
