<svg width="100" height="100" viewBox="0 0 100 100" fill="none" xmlns="http://www.w3.org/2000/svg">
<g clip-path="url(#clip0)">
<path d="M81.6668 1.66663H18.3336C14.652 1.66663 11.667 4.65159 11.667 8.33323V48.3332H88.3336V8.33323C88.3336 4.65178 85.3484 1.66663 81.6668 1.66663Z" fill="#87CED9"/>
<path d="M81.6667 1.66663H72.7784L26.1118 48.3334H88.3335V8.33342C88.3335 4.65178 85.3483 1.66663 81.6667 1.66663Z" fill="#7DC6D1"/>
<path d="M59.5228 70L56.6662 60H43.333L40.4764 70H33.333V73.3334H66.6662V70H59.5228Z" fill="#4398D1"/>
<path d="M11.6665 53.3334C11.6665 57.015 14.6515 60 18.3331 60H81.6665C85.3482 60 88.3331 57.015 88.3331 53.3334V48.3334H11.6665V53.3334Z" fill="#4398D1"/>
<path d="M63.3331 78.3334H16.6665V98.3334H63.3331V78.3334Z" fill="#4398D1"/>
<path d="M76.6666 78.3334C80.3482 78.3334 83.3332 81.3183 83.3332 85V91.6666C83.3332 95.3482 80.3482 98.3332 76.6666 98.3332C72.985 98.3332 70 95.3482 70 91.6666V85C70 81.3183 72.985 78.3334 76.6666 78.3334Z" fill="#4398D1"/>
<path d="M24.9999 90H21.6665V93.3334H24.9999V90Z" fill="#3B86B8"/>
<path d="M24.9999 83.3334H21.6665V86.6668H24.9999V83.3334Z" fill="#3B86B8"/>
<path d="M31.6669 83.3334H28.3335V86.6668H31.6669V83.3334Z" fill="#3B86B8"/>
<path d="M38.3334 83.3334H35V86.6668H38.3334V83.3334Z" fill="#3B86B8"/>
<path d="M51.6664 83.3334H48.333V86.6668H51.6664V83.3334Z" fill="#3B86B8"/>
<path d="M44.9999 83.3334H41.6665V86.6668H44.9999V83.3334Z" fill="#3B86B8"/>
<path d="M58.3334 90H55V93.3334H58.3334V90Z" fill="#3B86B8"/>
<path d="M58.3334 83.3334H55V86.6668H58.3334V83.3334Z" fill="#3B86B8"/>
<path d="M51.6669 90H28.3335V93.3334H51.6669V90Z" fill="#3B86B8"/>
<path d="M78.3334 83.3334H75V86.6668H78.3334V83.3334Z" fill="#3B86B8"/>
<path d="M48.2583 38.8137L54.9312 15.4938L51.7281 14.5772L45.0552 37.8972L48.2583 38.8137Z" fill="#3077A6"/>
<path d="M38.9336 36.2801L28.9337 27.9467C28.227 27.3567 28.1319 26.3067 28.7204 25.6C28.7854 25.5233 28.8553 25.4518 28.9337 25.3867L38.9336 17.0533L41.067 19.6133L32.6038 26.6666L41.067 33.7199L38.9336 36.2801Z" fill="#3077A6"/>
<path d="M61.0665 36.28L58.9331 33.7201L67.3964 26.6667L58.9331 19.6134L61.0665 17.0535L71.0665 25.3869C71.7731 25.9769 71.8683 27.0269 71.2798 27.7335C71.2147 27.8103 71.1448 27.8818 71.0665 27.9468L61.0665 36.28Z" fill="#3077A6"/>
<path d="M57.6181 63.3334L56.6663 60H43.3331L42.3813 63.3334H57.6181Z" fill="#3B86B8"/>
<path d="M90 53.3334V8.3334C89.9949 3.7334 86.2666 0.00507812 81.6666 0H18.3334C13.7334 0.00507812 10.0051 3.7334 10 8.3334V53.3334C10.0051 57.9334 13.7334 61.6617 18.3334 61.6668H41.1234L38.7434 70H33.3334V73.3334H66.6668V70H61.2568L58.8768 61.6666H81.6668C86.2666 61.6617 89.9949 57.9334 90 53.3334ZM18.3334 3.3334H81.6668C84.4285 3.3334 86.6668 5.57168 86.6668 8.3334V46.6668H13.3334V8.3334C13.3334 5.57168 15.5717 3.3334 18.3334 3.3334ZM57.79 70H42.21L44.59 61.6666H55.41L57.79 70ZM81.6666 58.3334H18.3334C15.5717 58.3334 13.3334 56.0951 13.3334 53.3334V50H86.6668V53.3334C86.6666 56.0949 84.4283 58.3334 81.6666 58.3334Z" fill="black"/>
<path d="M16.6666 76.6666C15.7467 76.6666 15 77.4133 15 78.3332V98.3332C15 99.2532 15.7467 99.9998 16.6666 99.9998H63.3332C64.2531 99.9998 64.9998 99.2532 64.9998 98.3332V78.3332C64.9998 77.4133 64.2531 76.6666 63.3332 76.6666H16.6666ZM61.6666 96.6666H18.3334V80H61.6668V96.6666H61.6666Z" fill="black"/>
<path d="M24.9999 90H21.6665V93.3334H24.9999V90Z" fill="black"/>
<path d="M24.9999 83.3334H21.6665V86.6668H24.9999V83.3334Z" fill="black"/>
<path d="M31.6669 83.3334H28.3335V86.6668H31.6669V83.3334Z" fill="black"/>
<path d="M38.3334 83.3334H35V86.6668H38.3334V83.3334Z" fill="black"/>
<path d="M51.6669 83.3334H48.3335V86.6668H51.6669V83.3334Z" fill="black"/>
<path d="M44.9999 83.3334H41.6665V86.6668H44.9999V83.3334Z" fill="black"/>
<path d="M58.3334 90H55V93.3334H58.3334V90Z" fill="black"/>
<path d="M58.3334 83.3334H55V86.6668H58.3334V83.3334Z" fill="black"/>
<path d="M51.6669 90H28.3335V93.3334H51.6669V90Z" fill="black"/>
<path d="M68.3335 85V91.6666C68.3335 96.2684 72.0651 100 76.6669 100C81.2687 100 85.0003 96.2684 85.0003 91.6666V85C85.0003 80.3983 81.2687 76.6666 76.6669 76.6666C72.0651 76.6666 68.3335 80.3983 68.3335 85ZM81.6667 85V91.6666C81.6667 94.4283 79.4284 96.6666 76.6667 96.6666C73.905 96.6666 71.6667 94.4283 71.6667 91.6666V85C71.6667 82.2383 73.905 80 76.6667 80C79.4284 80 81.6667 82.2383 81.6667 85Z" fill="black"/>
<path d="M78.3334 83.3334H75V86.6668H78.3334V83.3334Z" fill="black"/>
<path d="M48.2583 38.8137L54.9312 15.4938L51.7281 14.5772L45.0552 37.8972L48.2583 38.8137Z" fill="black"/>
<path d="M38.9336 36.2801L41.067 33.7202L32.6038 26.6669L41.067 19.6135L38.9336 17.0536L28.9337 25.387C28.227 25.977 28.1319 27.027 28.7204 27.7337C28.7854 27.8104 28.8553 27.8819 28.9337 27.9469L38.9336 36.2801Z" fill="black"/>
<path d="M61.067 36.2801L71.067 27.9467C71.7736 27.3567 71.8688 26.3067 71.2803 25.6C71.2152 25.5233 71.1453 25.4518 71.067 25.3867L61.067 17.0533L58.9336 19.6133L67.3969 26.6666L58.9336 33.7199L61.067 36.2801Z" fill="black"/>
</g>
<defs>
<clipPath id="clip0">
<rect width="100" height="100" fill="white"/>
</clipPath>
</defs>
</svg>
